:version 1.10
:name ASF
:units
  mass 1
  length 1
  angle deg
:documentation
  ASF file generated by Kaydara
:root
  axis xyz
  order  tx ty tz rx ry rz
  position 0 0 0
  orientation 0 0 0
:bonedata
  begin
    id 1
    name RightUpLegDummy
    direction -0.65628 -0.754516 0.00165102
    length 4.76918
    axis 0 0 0 xyz
  end
  begin
    id 2
    name RightUpLeg
    direction -0.145584 -0.923362 0.355256
    length 17.9961
    axis -24.7611 -13.1006 1.78531 xyz
    dof rx ry rz
  end
  begin
    id 3
    name RightLeg
    direction 0.263379 0.172355 -0.949171
    length 13.3386
    axis 89.6202 -21.1929 12.3855 xyz
    dof rx ry rz
  end
  begin
    id 4
    name RightFoot
    direction 0.224283 -0.968777 -0.105675
    length 5.86697
    axis 56.995 -39.6905 17.3365 xyz
    dof rx ry rz
  end
  begin
    id 5
    name RightToes
    direction -0.0806345 -0.9037 0.420506
    length 4.75197
    axis 146.825 -39.7828 17.6019 xyz
    dof rx ry rz
  end
  begin
    id 6
    name SpineDummy
    direction -3.39852e-014 1 9.33296e-014
    length 8.13779
    axis 0 0 0 xyz
  end
  begin
    id 7
    name Spine
    direction -0.156609 0.733703 0.661176
    length 7.14978
    axis 41.2365 5.68757 17.0844 xyz
    dof rx ry rz
  end
  begin
    id 8
    name Spine1
    direction 0 0 0
    length 0
    axis 42.8809 47.8308 -3.36039 xyz
    dof rx ry rz
  end
  begin
    id 9
    name HEadDummy
    direction 0.546431 0.701947 0.456819
    length 3.55512
    axis 42.8809 47.8308 -3.36039 xyz
  end
  begin
    id 10
    name HEad
    direction 0.23444 0.828559 0.508457
    length 7.35827
    axis 51.1864 49.2662 27.4903 xyz
    dof rx ry rz
  end
  begin
    id 11
    name LeftShoulder1Dummy
    direction 0.431183 0.475873 -0.766568
    length 2.49352
    axis 42.8809 47.8308 -3.36039 xyz
  end
  begin
    id 12
    name LeftShoulder1
    direction 0.268187 -0.383402 -0.883786
    length 4.48604
    axis -119.517 0.106469 35.1736 xyz
    dof rx ry rz
  end
  begin
    id 13
    name LeftArm
    direction 0.380567 -0.703221 -0.600541
    length 10.1142
    axis -5.41825 36.2925 7.8293 xyz
    dof rx ry rz
  end
  begin
    id 14
    name LeftForeArm
    direction 0.541071 -0.732356 -0.413396
    length 9.39839
    axis 4.65387 33.7604 7.81644 xyz
    dof rx ry rz
  end
  begin
    id 15
    name LeftHand
    direction 0.847511 -0.389379 -0.360707
    length 3.66142
    axis 7.65593 21.1436 -24.6758 xyz
    dof rx ry rz
  end
  begin
    id 16
    name RightShoulderDummy
    direction -0.692546 0.541855 0.476208
    length 2.49352
    axis 42.8809 47.8308 -3.36039 xyz
  end
  begin
    id 17
    name RightShoulder
    direction -0.870808 -0.316653 0.376065
    length 4.48602
    axis 141.571 51.133 -100.254 xyz
    dof rx ry rz
  end
  begin
    id 18
    name RightArm
    direction 0.366897 -0.87275 0.322015
    length 10.1142
    axis 92.3258 71.2036 138.917 xyz
    dof rx ry rz
  end
  begin
    id 19
    name RightForeArm
    direction 0.702487 -0.694568 0.155197
    length 9.39835
    axis 153.863 41.5092 -176.604 xyz
    dof rx ry rz
  end
  begin
    id 20
    name RightHand
    direction 0.79502 -0.601276 0.0800636
    length 3.66142
    axis 154.247 4.59222 142.9 xyz
    dof rx ry rz
  end
  begin
    id 21
    name LeftUpLegDummy
    direction 0.65628 -0.754516 0.00165102
    length 4.76919
    axis 0 0 0 xyz
  end
  begin
    id 22
    name LeftUpLeg
    direction -0.1277 -0.689368 0.713067
    length 17.9961
    axis -48.3385 -17.8675 0.791927 xyz
    dof rx ry rz
  end
  begin
    id 23
    name LeftLeg
    direction 0.109849 -0.991246 -0.0732378
    length 13.3386
    axis -2.05791 -7.30784 1.72042 xyz
    dof rx ry rz
  end
  begin
    id 24
    name LeftFoot
    direction 0.0448355 -0.272614 0.961078
    length 5.86697
    axis -18.7733 -7.89606 10.2113 xyz
    dof rx ry rz
  end
  begin
    id 25
    name LeftToes
    direction -0.18506 0.293668 0.937823
    length 4.75197
    axis 71.2267 -7.89606 10.2113 xyz
    dof rx ry rz
  end
:hierarchy
  begin
    root RightUpLegDummy SpineDummy LeftUpLegDummy
    RightUpLegDummy RightUpLeg
    RightUpLeg RightLeg
    RightLeg RightFoot
    RightFoot RightToes
    SpineDummy Spine
    Spine Spine1
    Spine1 HEadDummy LeftShoulder1Dummy RightShoulderDummy
    HEadDummy HEad
    LeftShoulder1Dummy LeftShoulder1
    LeftShoulder1 LeftArm
    LeftArm LeftForeArm
    LeftForeArm LeftHand
    RightShoulderDummy RightShoulder
    RightShoulder RightArm
    RightArm RightForeArm
    RightForeArm RightHand
    LeftUpLegDummy LeftUpLeg
    LeftUpLeg LeftLeg
    LeftLeg LeftFoot
    LeftFoot LeftToes
  end

:SAMPLES-PER-SECOND 30
:FULLY-SPECIFIED
:DEGREES
691
root  4.02304 39.0472 50.3022 -2.59659 -28.6034 -0.513844
RightUpLeg  2.04482 10.0075 10.7593
RightLeg  -104.236 -3.27323 23.9535
RightFoot  34.1701 13.3349 -28.1594
RightToes  -1.27222e-014 -6.36111e-015 6.36111e-015
Spine  -48.5955 -15.3852 -4.32663
Spine1  7.42373 -16.6057 51.1078
HEad  11.9493 -28.5511 -17.0645
LeftShoulder1  6.36111e-015 -1.33558e-015 6.49777e-015
LeftArm  44.0669 -65.7624 -100.617
LeftForeArm  -73.3123 -33.9271 -0.11433
LeftHand  -5.86019 -33.5397 -32.0208
RightShoulder  -4.77083e-015 -6.36111e-015 -3.18055e-015
RightArm  46.6374 21.609 61.6381
RightForeArm  -12.7151 -12.9117 -4.67555
RightHand  0.674004 -0.584639 -4.1997
LeftUpLeg  53.8524 25.39 23.0754
LeftLeg  -5.26911 -7.93642 -1.12623
LeftFoot  2.32101 4.29476 -13.4453
LeftToes  1.27222e-014 -5.20697e-012 1.80337e-011
692
root  3.53699 39.0533 51.0519 -2.16525 -28.1578 -1.19008
RightUpLeg  2.30254 7.83415 10.8054
RightLeg  -101.499 -4.8378 22.7283
RightFoot  31.4369 12.3059 -27.0107
RightToes  -1.27222e-014 -6.36111e-015 6.36111e-015
Spine  -47.9331 -14.4941 -3.69908
Spine1  7.15007 -16.1937 52.9969
HEad  11.1688 -27.773 -17.2722
LeftShoulder1  6.36111e-015 -1.33558e-015 6.49777e-015
LeftArm  45.0388 -65.9591 -101.049
LeftForeArm  -73.5324 -33.9125 -0.449182
LeftHand  -5.88797 -33.3545 -31.8157
RightShoulder  -4.77083e-015 -6.36111e-015 -3.18055e-015
RightArm  45.5159 21.4489 60.7365
RightForeArm  -12.5583 -12.8083 -3.64036
RightHand  0.786587 -0.982609 -4.40623
LeftUpLeg  49.7657 23.6265 22.7528
LeftLeg  3.29541 -8.24595 -1.30926
LeftFoot  9.02318 5.54726 -14.4566
LeftToes  1.27222e-014 -5.20697e-012 1.80337e-011
693
root  3.06282 39.0224 51.7281 -1.97412 -27.2633 -1.77689
RightUpLeg  2.82254 7.16317 11.1376
RightLeg  -99.439 -5.87614 23.4626
RightFoot  29.4056 12.1525 -26.8959
RightToes  -1.27222e-014 -6.36111e-015 6.36111e-015
Spine  -47.0635 -13.9628 -3.0747
Spine1  6.96166 -15.9255 54.6296
HEad  10.1154 -27.7845 -16.6162
LeftShoulder1  6.36111e-015 -1.33558e-015 6.49777e-015
LeftArm  47.3359 -67.0875 -102.699
LeftForeArm  -73.8114 -33.7625 -1.29564
LeftHand  -5.92961 -33.234 -31.5791
RightShoulder  -4.77083e-015 -6.36111e-015 -3.18055e-015
RightArm  45.1842 21.7353 60.8052
RightForeArm  -12.3896 -12.6092 -3.4312
RightHand  0.842239 -1.18055 -4.50279
LeftUpLeg  45.4637 21.5381 22.0436
LeftLeg  11.1442 -7.81776 -1.42412
LeftFoot  13.7463 6.51962 -15.1303
LeftToes  1.27222e-014 -5.20697e-012 1.80337e-011
694
root  2.60944 39.0418 52.3981 -1.98776 -27.0106 -2.39819
RightUpLeg  4.10312 7.11414 11.8491
RightLeg  -98.391 -6.61755 24.4312
RightFoot  27.8308 11.8399 -26.5335
RightToes  -1.27222e-014 -6.36111e-015 6.36111e-015
Spine  -46.3177 -13.037 -2.23322
Spine1  6.91751 -15.5568 54.7856
HEad  8.98051 -28.0771 -15.7971
LeftShoulder1  6.36111e-015 -1.33558e-015 6.49777e-015
LeftArm  49.9031 -68.405 -104.87
LeftForeArm  -73.9037 -33.3898 -2.57082
LeftHand  -5.96769 -33.2449 -31.4204
RightShoulder  -4.77083e-015 -6.36111e-015 -3.18055e-015
RightArm  45.7624 22.3027 61.7339
RightForeArm  -12.5864 -12.8174 -4.03499
RightHand  0.817641 -1.09427 -4.45857
LeftUpLeg  42.0882 19.9666 22.2246
LeftLeg  16.8577 -5.43655 -0.576613
LeftFoot  14.0304 6.66558 -15.3631
LeftToes  1.27222e-014 -5.20697e-012 1.80337e-011
695
root  2.16899 39.1095 53.08 -2.14523 -27.631 -2.68147
RightUpLeg  5.65004 6.4909 12.23
RightLeg  -97.6277 -7.40272 23.6351
RightFoot  26.2546 11.2528 -25.7621
RightToes  -1.27222e-014 -6.36111e-015 6.36111e-015
Spine  -45.7958 -12.0918 -1.73249
Spine1  6.95199 -15.0343 53.9957
HEad  8.19355 -27.9549 -15.3963
LeftShoulder1  6.36111e-015 -1.33558e-015 6.49777e-015
LeftArm  51.3808 -69.0213 -106.233
LeftForeArm  -73.7873 -33.053 -3.40652
LeftHand  -6.00501 -33.1979 -31.2363
RightShoulder  -4.77083e-015 -6.36111e-015 -3.18055e-015
RightArm  46.5376 22.7221 62.7215
RightForeArm  -13.0386 -13.2335 -5.10769
RightHand  0.782465 -0.91141 -4.48528
LeftUpLeg  39.3746 19.2742 22.8672
LeftLeg  20.064 -2.47917 0.964283
LeftFoot  11.7234 6.04996 -14.7399
LeftToes  1.27222e-014 -5.20697e-012 1.80337e-011
696
root  1.74806 39.1697 53.7584 -2.31598 -28.5665 -2.54295
RightUpLeg  6.8197 5.45349 12.1015
RightLeg  -96.6754 -8.36823 21.7888
RightFoot  24.7679 10.9705 -25.3858
RightToes  -1.27222e-014 -6.36111e-015 6.36111e-015
Spine  -45.3698 -11.6067 -1.7609
Spine1  6.85095 -14.5383 53.3542
HEad  7.81184 -27.2723 -15.3033
LeftShoulder1  6.36111e-015 -1.33558e-015 6.49777e-015
LeftArm  51.333 -68.8471 -106.118
LeftForeArm  -73.6386 -33.0157 -3.29565
LeftHand  -6.03421 -33.0979 -31.0596
RightShoulder  -4.77083e-015 -6.36111e-015 -3.18055e-015
RightArm  46.4338 22.588 62.8385
RightForeArm  -13.1268 -12.93 -6.22537
RightHand  0.800615 -0.851625 -4.70815
LeftUpLeg  36.5695 18.8378 22.7982
LeftLeg  21.1083 -0.894386 1.89094
LeftFoot  9.88286 5.27127 -13.4532
LeftToes  1.27222e-014 -5.20697e-012 1.80337e-011
697
root  1.35988 39.2223 54.4209 -2.43118 -29.6696 -2.31595
RightUpLeg  7.81018 4.61615 11.9127
RightLeg  -95.8716 -9.30015 20.1378
RightFoot  23.5851 10.9529 -25.3774
RightToes  -1.27222e-014 -6.36111e-015 6.36111e-015
Spine  -44.8919 -11.4607 -2.02773
Spine1  6.51068 -14.183 52.926
HEad  7.50373 -26.3923 -15.1018
LeftShoulder1  6.36111e-015 -1.33558e-015 6.49777e-015
LeftArm  50.0596 -68.3718 -104.603
LeftForeArm  -73.5824 -33.1814 -2.72616
LeftHand  -6.03405 -33.1365 -31.0799
RightShoulder  -4.77083e-015 -6.36111e-015 -3.18055e-015
RightArm  45.1336 21.9011 61.7575
RightForeArm  -12.7147 -11.5107 -7.04707
RightHand  0.858241 -0.903971 -5.04136
LeftUpLeg  33.6437 18.0012 21.8103
LeftLeg  20.3211 -1.00764 1.7461
LeftFoot  9.07589 4.71648 -12.2956
LeftToes  1.27222e-014 -5.20697e-012 1.80337e-011
698
root  1.00962 39.2843 55.0545 -2.54437 -31.2856 -2.22613
RightUpLeg  9.0366 4.0385 11.8764
RightLeg  -95.4075 -10.0361 18.4634
RightFoot  22.6131 10.8427 -25.2258
RightToes  -1.27222e-014 -6.36111e-015 6.36111e-015
Spine  -44.303 -11.3239 -2.36413
Spine1  6.12282 -13.8518 52.3154
HEad  6.9821 -25.5112 -14.6471
LeftShoulder1  6.36111e-015 -1.33558e-015 6.49777e-015
LeftArm  47.7638 -67.8097 -101.731
LeftForeArm  -73.5097 -33.3718 -2.05782
LeftHand  -6.06103 -32.9586 -30.8715
RightShoulder  -4.77083e-015 -6.36111e-015 -3.18055e-015
RightArm  43.4817 20.9563 59.9422
RightForeArm  -12.4972 -9.8464 -7.58699
RightHand  0.908078 -0.932153 -5.35434
LeftUpLeg  31.1623 16.7136 20.6747
LeftLeg  17.8041 -2.36943 0.850352
LeftFoot  8.10152 4.4758 -11.9654
LeftToes  1.27222e-014 -5.20697e-012 1.80337e-011
699
root  0.698105 39.3514 55.6592 -2.63705 -33.485 -2.17875
RightUpLeg  10.3763 3.6835 11.8751
RightLeg  -95.0947 -10.5585 16.3652
RightFoot  21.7858 10.7667 -25.1195
RightToes  -1.27222e-014 -6.36111e-015 6.36111e-015
Spine  -43.8087 -11.1816 -2.91482
Spine1  5.95925 -13.4359 51.6423
HEad  6.19338 -24.4473 -14.0117
LeftShoulder1  6.36111e-015 -1.33558e-015 6.49777e-015
LeftArm  44.8936 -66.9057 -97.7621
LeftForeArm  -73.165 -33.6429 -0.780598
LeftHand  -6.22904 -31.6753 -29.396
RightShoulder  -4.77083e-015 -6.36111e-015 -3.18055e-015
RightArm  42.0415 19.6834 57.5871
RightForeArm  -12.8157 -8.52833 -8.14492
RightHand  0.939134 -0.899788 -5.62826
LeftUpLeg  29.2936 15.3327 19.9541
LeftLeg  13.5171 -4.48186 -0.263849
LeftFoot  7.19505 4.46303 -12.2141
LeftToes  1.27222e-014 -5.20697e-012 1.80337e-011
700
root  0.436261 39.4217 56.2521 -2.45682 -36.0115 -2.16426
RightUpLeg  11.4921 3.87503 12.0056
RightLeg  -94.9697 -10.8355 14.3401
RightFoot  21.2416 10.8867 -25.3103
RightToes  -1.27222e-014 -6.36111e-015 6.36111e-015
Spine  -43.7215 -11.1146 -3.65797
Spine1  6.02412 -13.0219 51.1884
HEad  5.27249 -22.9807 -13.2379
LeftShoulder1  6.36111e-015 -1.33558e-015 6.49777e-015
LeftArm  42.1254 -65.3888 -93.1945
LeftForeArm  -72.3539 -34.0105 1.30198
LeftHand  -6.44148 -28.9374 -26.3982
RightShoulder  -4.77083e-015 -6.36111e-015 -3.18055e-015
RightArm  40.4155 17.5068 54.3414
RightForeArm  -13.0834 -6.88885 -8.83986
RightHand  0.975151 -0.868395 -5.93702
LeftUpLeg  27.7701 13.9873 19.5502
LeftLeg  7.36146 -6.27658 -0.943762
LeftFoot  7.39671 4.51972 -12.3033
LeftToes  1.27222e-014 -5.20697e-012 1.80337e-011
701
root  0.233936 39.5056 56.8421 -1.84439 -38.8453 -2.38441
RightUpLeg  12.4686 4.78743 12.4957
RightLeg  -95.2891 -10.8625 12.7106
RightFoot  21.0799 10.9436 -25.4008
RightToes  -1.27222e-014 -6.36111e-015 6.36111e-015
Spine  -43.9075 -11.121 -4.37717
Spine1  6.01472 -12.736 50.895
HEad  4.41196 -20.9279 -12.3956
LeftShoulder1  6.36111e-015 -1.33558e-015 6.49777e-015
LeftArm  39.4095 -63.0846 -87.928
LeftForeArm  -71.1417 -34.2847 3.35416
LeftHand  -6.46717 -25.5422 -22.8675
RightShoulder  -4.77083e-015 -6.36111e-015 -3.18055e-015
RightArm  38.8406 14.3718 50.732
RightForeArm  -13.0058 -4.89443 -9.61586
RightHand  1.02319 -0.860884 -6.30625
LeftUpLeg  26.6913 12.2805 19.1135
LeftLeg  -0.601657 -6.83699 -1.08586
LeftFoot  8.42444 4.45388 -11.8097
LeftToes  1.27222e-014 -5.20697e-012 1.80337e-011
702
root  0.0786703 39.6082 57.4245 -1.08398 -42.2416 -2.82838
RightUpLeg  13.6525 6.07958 13.1856
RightLeg  -96.0094 -10.7877 10.9293
RightFoot  21.2443 10.8116 -25.1943
RightToes  -1.27222e-014 -6.36111e-015 6.36111e-015
Spine  -43.8285 -11.3721 -5.19476
Spine1  5.7382 -12.5665 50.6977
HEad  3.63154 -18.0174 -11.5908
LeftShoulder1  6.36111e-015 -1.33558e-015 6.49777e-015
LeftArm  36.277 -59.7348 -81.5512
LeftForeArm  -69.9167 -34.4511 4.87935
LeftHand  -6.33653 -22.7109 -19.8286
RightShoulder  -4.77083e-015 -6.36111e-015 -3.18055e-015
RightArm  38.0472 11.0012 47.6323
RightForeArm  -13.0163 -3.52694 -10.1853
RightHand  1.06212 -0.841577 -6.6045
LeftUpLeg  26.581 9.74239 18.3926
LeftLeg  -9.76178 -7.29753 -1.15665
LeftFoot  9.71983 4.33181 -11.1216
LeftToes  1.27222e-014 -5.20697e-012 1.80337e-011
703
root  -0.0485742 39.7174 58.0156 -0.505707 -46.3023 -3.23692
RightUpLeg  15.014 7.39568 13.6913
RightLeg  -96.6862 -10.8392 8.43803
RightFoot  21.5554 10.7198 -25.0497
RightToes  -1.27222e-014 -6.36111e-015 6.36111e-015
Spine  -43.3969 -12.017 -6.38775
Spine1  5.48933 -12.4101 50.6348
HEad  2.7731 -14.2222 -10.7392
LeftShoulder1  6.36111e-015 -1.33558e-015 6.49777e-015
LeftArm  33.1024 -55.219 -74.5189
LeftForeArm  -69.0444 -34.7951 6.43813
LeftHand  -6.17007 -20.7901 -17.6835
RightShoulder  -4.77083e-015 -6.36111e-015 -3.18055e-015
RightArm  38.3224 8.03343 45.2269
RightForeArm  -13.5292 -3.57409 -10.3207
RightHand  1.0686 -0.833042 -6.66519
LeftUpLeg  27.5863 6.54925 17.408
LeftLeg  -18.9364 -9.81312 -0.734897
LeftFoot  11.7291 4.71374 -11.5159
LeftToes  1.27222e-014 -5.20697e-012 1.80337e-011
